Coordinates
version=1
nRows=10
nColumns=27
inDegrees=yes

Units are S.I. units (second, meters, Newtons, ...)
If the header above contains a line with 'inDegrees', this indicates whether rotational values are in degrees (yes) or radians (no).

endheader
time	pelvis_rotation	pelvis_tilt	pelvis_list	pelvis_tx	pelvis_ty	pelvis_tz	hip_flexion_r	hip_adduction_r	hip_rotation_r	knee_angle_r	knee_rotation_r	knee_adduction_r	knee_angle_r_beta	ankle_angle_r	subtalar_angle_r	mtp_angle_r	hip_flexion_l	hip_adduction_l	hip_rotation_l	knee_angle_l	knee_rotation_l	knee_adduction_l	knee_angle_l_beta	ankle_angle_l	subtalar_angle_l	mtp_angle_l
      3.25500000	      0.11584116	    -29.75871146	      7.37951457	      0.06818653	      0.82213425	     -1.17873330	     54.15767103	    -33.54293581	    -20.93254764	     29.93631518	      0.00000000	      5.56324481	      0.52248727	     -4.26991882	      0.00000000	      0.00000000	     46.75330150	    -16.86469376	    -13.89638682	     20.43902023	      0.00000000	      2.79032666	      0.35672820	     -7.93104949	      0.00000000	      0.00000000
      3.26000000	      0.50837715	    -28.82147071	      7.29074461	      0.06986749	      0.82213265	     -1.17873241	     52.65223368	    -34.00921336	    -22.78198809	     29.90815727	      0.00000000	      6.78100223	      0.52199582	     -4.16003954	      0.00000000	      0.00000000	     45.90571178	    -16.76945983	    -13.92906604	     20.35272580	      0.00000000	      2.24299294	      0.35522208	     -7.93658555	      0.00000000	      0.00000000
      3.26500000	      0.56917219	    -29.20149804	      7.41231353	      0.06853820	      0.82119398	     -1.17870952	     53.56552202	    -34.20111649	    -22.47310436	     30.48900662	      0.00000000	      6.91609110	      0.53213355	     -4.02436335	      0.00000000	      0.00000000	     46.71525110	    -16.83967380	    -14.12121524	     20.96752882	      0.00000000	      1.92276431	      0.36595241	     -7.77477007	      0.00000000	      0.00000000
      3.27000000	      0.69015234	    -29.77605580	      7.79522735	      0.06676397	      0.82000465	     -1.17895749	     54.97298668	    -34.60310834	    -21.81892935	     31.24410397	      0.00000000	      6.98064902	      0.54531249	     -3.86364443	      0.00000000	      0.00000000	     47.71306278	    -16.70257436	    -14.32754188	     21.60526398	      0.00000000	      1.69771149	      0.37708299	     -7.56415521	      0.00000000	      0.00000000
      3.27500000	      0.79319118	    -30.88021580	      7.77316251	      0.06379932	      0.81857805	     -1.17875473	     56.83954774	    -34.45675328	    -20.63161814	     31.96634649	      0.00000000	      6.18797683	      0.55791800	     -3.82732947	      0.00000000	      0.00000000	     49.63175956	    -16.98446675	    -14.03809427	     22.65496506	      0.00000000	      1.57122990	      0.39540373	     -7.23555826	      0.00000000	      0.00000000
      3.28000000	      1.27409012	    -32.13115840	      7.74357852	      0.06086942	      0.81713768	     -1.17866481	     58.58691125	    -34.58851117	    -20.45916095	     32.68246662	      0.00000000	      6.05855235	      0.57041665	     -3.69385956	      0.00000000	      0.00000000	     51.87983101	    -17.11030689	    -13.16194409	     23.67310064	      0.00000000	      1.71596126	      0.41317355	     -7.06545210	      0.00000000	      0.00000000
      3.28500000	      0.86538391	    -30.32964733	      7.78995433	      0.06389929	      0.81725612	     -1.17848073	     56.56405252	    -34.93133992	    -21.49151397	     32.63977403	      0.00000000	      7.33140385	      0.56967152	     -3.49746662	      0.00000000	      0.00000000	     49.47545969	    -17.17167354	    -14.82891300	     23.26601841	      0.00000000	      0.46982653	      0.40606863	     -7.00500948	      0.00000000	      0.00000000
      3.29000000	      0.75425514	    -32.84729320	      6.92152277	      0.05858074	      0.81497489	     -1.17750575	     59.83502167	    -33.94175023	    -20.39931085	     33.53365662	      0.00000000	      6.28595670	      0.58527272	     -3.44637982	      0.00000000	      0.00000000	     53.70204993	    -18.44263347	    -13.89290664	     25.42819439	      0.00000000	      0.40507796	      0.44380571	     -6.39823188	      0.00000000	      0.00000000
      3.29500000	      0.96299695	    -30.70164610	      7.79119374	      0.06195394	      0.81524026	     -1.17815717	     57.66780294	    -35.15628495	    -21.23916052	     33.60021254	      0.00000000	      7.55958098	      0.58643434	     -3.21948177	      0.00000000	      0.00000000	     50.66037030	    -17.51089631	    -15.19890630	     24.40635327	      0.00000000	     -0.37144611	      0.42597122	     -6.60706033	      0.00000000	      0.00000000
      3.30000000	      0.92850281	    -30.87972135	      7.86433064	      0.06094326	      0.81417555	     -1.17805776	     58.34291995	    -35.27280987	    -20.89114120	     34.11903946	      0.00000000	      7.64966052	      0.59548958	     -3.09374788	      0.00000000	      0.00000000	     51.16710961	    -17.65927198	    -15.52321712	     24.94477429	      0.00000000	     -0.78454094	      0.43536844	     -6.40359732	      0.00000000	      0.00000000
